<svg xmlns="http://www.w3.org/2000/svg" viewBox="0 0 499.6 213.2" width="500" height="213" role="img" aria-label="Vibe. Code. Flow. logo">
<rect width="499.6" height="213.2" rx="22" fill="#FAF7F1"/>
<g id="wordmark" transform="translate(45.79 82.46)">
<path d="M10.72 -0.00L2.21 -23.73L7.40 -23.73L10.67 -13.71L13.76 -4.18L14.03 -4.18L17.11 -13.71L20.38 -23.73L25.39 -23.73L16.88 -0.00L10.72 -0.00ZM42.87 -28.06Q40.94 -28.06 40.18 -28.84Q39.42 -29.63 39.42 -30.78L39.42 -31.74Q39.42 -32.89 40.18 -33.67Q40.94 -34.46 42.82 -34.46Q44.76 -34.46 45.51 -33.67Q46.27 -32.89 46.27 -31.74L46.27 -30.78Q46.27 -29.63 45.51 -28.84Q44.76 -28.06 42.87 -28.06ZM32.24 -4.05L40.34 -4.05L40.34 -19.69L32.24 -19.69L32.24 -23.73L45.35 -23.73L45.35 -4.05L52.94 -4.05L52.94 -0.00L32.24 -0.00L32.24 -4.05ZM58.84 -34.04L63.85 -34.04L63.85 -19.69L64.13 -19.69Q65.18 -21.85 66.93 -23.06Q68.68 -24.29 71.30 -24.29Q75.48 -24.29 77.97 -21.16Q80.46 -18.03 80.46 -11.87Q80.46 -5.71 77.97 -2.57Q75.48 0.55 71.30 0.55Q68.68 0.55 66.93 -0.66Q65.18 -1.88 64.13 -4.05L63.85 -4.05L63.85 -0.00L58.84 -0.00L58.84 -34.04ZM69.23 -3.54Q72.08 -3.54 73.62 -5.29Q75.17 -7.04 75.17 -9.93L75.17 -13.80Q75.17 -16.70 73.62 -18.44Q72.08 -20.20 69.23 -20.20Q68.12 -20.20 67.16 -19.92Q66.20 -19.64 65.46 -19.09Q64.72 -18.54 64.28 -17.73Q63.85 -16.93 63.85 -15.83L63.85 -7.91Q63.85 -6.81 64.28 -6.00Q64.72 -5.20 65.46 -4.64Q66.20 -4.10 67.16 -3.82Q68.12 -3.54 69.23 -3.54ZM97.10 0.55Q94.39 0.55 92.23 -0.32Q90.07 -1.19 88.59 -2.80Q87.13 -4.41 86.34 -6.69Q85.56 -8.97 85.56 -11.82Q85.56 -14.68 86.36 -16.98Q87.17 -19.28 88.61 -20.91Q90.07 -22.54 92.14 -23.41Q94.21 -24.29 96.74 -24.29Q99.22 -24.29 101.24 -23.43Q103.27 -22.58 104.69 -21.02Q106.12 -19.46 106.88 -17.29Q107.64 -15.14 107.64 -12.51L107.64 -10.62L90.62 -10.62L90.62 -9.85Q90.62 -7.04 92.37 -5.26Q94.11 -3.49 97.20 -3.49Q99.50 -3.49 101.13 -4.49Q102.77 -5.48 103.77 -7.13L106.91 -4.37Q105.71 -2.30 103.24 -0.87Q100.78 0.55 97.10 0.55ZM96.74 -20.47Q95.41 -20.47 94.28 -20.01Q93.15 -19.55 92.34 -18.69Q91.54 -17.85 91.08 -16.70Q90.62 -15.55 90.62 -14.17L90.62 -13.84L102.54 -13.84L102.54 -14.30Q102.54 -17.11 100.95 -18.79Q99.36 -20.47 96.74 -20.47Z" fill="#181820"/>
<path d="M121.44 0.46Q119.23 0.46 118.33 -0.46Q117.44 -1.38 117.44 -2.72L117.44 -3.91Q117.44 -5.25 118.33 -6.17Q119.23 -7.09 121.44 -7.09Q123.65 -7.09 124.54 -6.17Q125.44 -5.25 125.44 -3.91L125.44 -2.72Q125.44 -1.38 124.54 -0.46Q123.65 0.46 121.44 0.46Z" fill="#7C78FF"/>
<path d="M153.92 0.55Q151.25 0.55 149.15 -0.32Q147.06 -1.19 145.61 -2.80Q144.17 -4.41 143.40 -6.71Q142.65 -9.01 142.65 -11.87Q142.65 -14.72 143.40 -17.02Q144.17 -19.32 145.61 -20.93Q147.06 -22.54 149.15 -23.41Q151.25 -24.29 153.87 -24.29Q157.55 -24.29 159.78 -22.72Q162.01 -21.16 163.12 -18.67L159.21 -16.56Q158.56 -18.21 157.25 -19.18Q155.94 -20.15 153.87 -20.15Q151.02 -20.15 149.45 -18.42Q147.89 -16.70 147.89 -13.84L147.89 -9.89Q147.89 -7.09 149.45 -5.33Q151.02 -3.59 153.96 -3.59Q156.17 -3.59 157.57 -4.60Q158.98 -5.61 159.81 -7.36L163.49 -5.10Q162.34 -2.62 159.99 -1.04Q157.64 0.55 153.92 0.55ZM180.64 0.55Q178.02 0.55 175.93 -0.32Q173.84 -1.19 172.38 -2.80Q170.94 -4.41 170.16 -6.71Q169.37 -9.01 169.37 -11.87Q169.37 -14.72 170.16 -17.02Q170.94 -19.32 172.38 -20.93Q173.84 -22.54 175.93 -23.41Q178.02 -24.29 180.64 -24.29Q183.27 -24.29 185.36 -23.41Q187.45 -22.54 188.89 -20.93Q190.35 -19.32 191.13 -17.02Q191.91 -14.72 191.91 -11.87Q191.91 -9.01 191.13 -6.71Q190.35 -4.41 188.89 -2.80Q187.45 -1.19 185.36 -0.32Q183.27 0.55 180.64 0.55ZM180.64 -3.41Q183.40 -3.41 185.03 -5.08Q186.67 -6.76 186.67 -10.08L186.67 -13.66Q186.67 -16.98 185.03 -18.65Q183.40 -20.33 180.64 -20.33Q177.88 -20.33 176.25 -18.65Q174.62 -16.98 174.62 -13.66L174.62 -10.08Q174.62 -6.76 176.25 -5.08Q177.88 -3.41 180.64 -3.41ZM213.40 -4.05L213.12 -4.05Q212.06 -1.88 210.31 -0.66Q208.57 0.55 205.94 0.55Q201.76 0.55 199.27 -2.57Q196.79 -5.71 196.79 -11.87Q196.79 -18.03 199.27 -21.16Q201.76 -24.29 205.94 -24.29Q208.57 -24.29 210.31 -23.06Q212.06 -21.85 213.12 -19.69L213.40 -19.69L213.40 -34.04L218.41 -34.04L218.41 -0.00L213.40 -0.00L213.40 -4.05ZM208.01 -3.54Q209.12 -3.54 210.08 -3.82Q211.05 -4.10 211.78 -4.64Q212.52 -5.20 212.96 -6.00Q213.40 -6.81 213.40 -7.91L213.40 -15.83Q213.40 -16.93 212.96 -17.73Q212.52 -18.54 211.78 -19.09Q211.05 -19.64 210.08 -19.92Q209.12 -20.20 208.01 -20.20Q205.16 -20.20 203.61 -18.44Q202.08 -16.70 202.08 -13.80L202.08 -9.93Q202.08 -7.04 203.61 -5.29Q205.16 -3.54 208.01 -3.54ZM236.35 0.55Q233.64 0.55 231.47 -0.32Q229.31 -1.19 227.84 -2.80Q226.37 -4.41 225.59 -6.69Q224.80 -8.97 224.80 -11.82Q224.80 -14.68 225.61 -16.98Q226.41 -19.28 227.86 -20.91Q229.31 -22.54 231.38 -23.41Q233.45 -24.29 235.98 -24.29Q238.47 -24.29 240.49 -23.43Q242.51 -22.58 243.94 -21.02Q245.37 -19.46 246.12 -17.29Q246.88 -15.14 246.88 -12.51L246.88 -10.62L229.86 -10.62L229.86 -9.85Q229.86 -7.04 231.61 -5.26Q233.36 -3.49 236.44 -3.49Q238.74 -3.49 240.37 -4.49Q242.01 -5.48 243.02 -7.13L246.15 -4.37Q244.95 -2.30 242.48 -0.87Q240.03 0.55 236.35 0.55ZM235.98 -20.47Q234.65 -20.47 233.52 -20.01Q232.39 -19.55 231.59 -18.69Q230.78 -17.85 230.32 -16.70Q229.86 -15.55 229.86 -14.17L229.86 -13.84L241.78 -13.84L241.78 -14.30Q241.78 -17.11 240.19 -18.79Q238.60 -20.47 235.98 -20.47Z" fill="#181820"/>
<path d="M260.68 0.46Q258.48 0.46 257.58 -0.46Q256.68 -1.38 256.68 -2.72L256.68 -3.91Q256.68 -5.25 257.58 -6.17Q258.48 -7.09 260.68 -7.09Q262.89 -7.09 263.79 -6.17Q264.69 -5.25 264.69 -3.91L264.69 -2.72Q264.69 -1.38 263.79 -0.46Q262.89 0.46 260.68 0.46Z" fill="#7C78FF"/>
<path d="M282.07 -4.05L289.66 -4.05L289.66 -19.69L281.61 -19.69L281.61 -23.73L289.66 -23.73L289.66 -28.02Q289.66 -30.68 291.14 -32.36Q292.61 -34.04 295.74 -34.04L303.74 -34.04L303.74 -29.99L294.68 -29.99L294.68 -23.73L303.74 -23.73L303.74 -19.69L294.68 -19.69L294.68 -4.05L302.68 -4.05L302.68 -0.00L282.07 -0.00L282.07 -4.05ZM309.54 -4.05L317.40 -4.05L317.40 -29.99L309.54 -29.99L309.54 -34.04L322.42 -34.04L322.42 -4.05L330.28 -4.05L330.28 -0.00L309.54 -0.00L309.54 -4.05ZM347.49 0.55Q344.86 0.55 342.77 -0.32Q340.68 -1.19 339.23 -2.80Q337.78 -4.41 337.00 -6.71Q336.22 -9.01 336.22 -11.87Q336.22 -14.72 337.00 -17.02Q337.78 -19.32 339.23 -20.93Q340.68 -22.54 342.77 -23.41Q344.86 -24.29 347.49 -24.29Q350.11 -24.29 352.20 -23.41Q354.29 -22.54 355.74 -20.93Q357.19 -19.32 357.97 -17.02Q358.76 -14.72 358.76 -11.87Q358.76 -9.01 357.97 -6.71Q357.19 -4.41 355.74 -2.80Q354.29 -1.19 352.20 -0.32Q350.11 0.55 347.49 0.55ZM347.49 -3.41Q350.25 -3.41 351.88 -5.08Q353.51 -6.76 353.51 -10.08L353.51 -13.66Q353.51 -16.98 351.88 -18.65Q350.25 -20.33 347.49 -20.33Q344.73 -20.33 343.10 -18.65Q341.46 -16.98 341.46 -13.66L341.46 -10.08Q341.46 -6.76 343.10 -5.08Q344.73 -3.41 347.49 -3.41ZM362.21 -23.73L366.48 -23.73L368.78 -3.77L369.20 -3.77L372.74 -23.73L377.62 -23.73L381.11 -3.77L381.53 -3.77L383.87 -23.73L387.97 -23.73L384.65 -0.00L378.49 -0.00L375.32 -18.40L374.90 -18.40L371.68 -0.00L365.52 -0.00L362.21 -23.73Z" fill="#181820"/>
<path d="M401.77 0.46Q399.56 0.46 398.66 -0.46Q397.76 -1.38 397.76 -2.72L397.76 -3.91Q397.76 -5.25 398.66 -6.17Q399.56 -7.09 401.77 -7.09Q403.97 -7.09 404.87 -6.17Q405.77 -5.25 405.77 -3.91L405.77 -2.72Q405.77 -1.38 404.87 -0.46Q403.97 0.46 401.77 0.46Z" fill="#7C78FF"/>
</g>
<g id="signal" transform="translate(-108.70 -6.53) scale(1.0733)">
<path d="M146 140 L210 140 L218 110 L226 156 L234 140 L250 140 L250 122 L290 122 L290 158 L330 158 L330 122 L370 122 L370 140 L385 140 Q405 120 425 140 Q445 160 465 140 Q485 120 505 140 L522 140" fill="none" stroke="#7C78FF" stroke-width="2.42" stroke-linecap="round" stroke-linejoin="round"/>
<circle cx="250" cy="140" r="2.80" fill="#7C78FF"/>
<circle cx="385" cy="140" r="2.80" fill="#7C78FF"/>
<circle cx="522" cy="140" r="4.19" fill="#7C78FF"/>
</g>
</svg>